<svg xmlns="http://www.w3.org/2000/svg" viewBox="0 0 100 100" width="32" height="32">
  <rect width="100" height="100" rx="18" fill="#07090f"/>
  <path d="M 50 36 Q 56 24 50 12" stroke="#8eb6ff" stroke-width="1.4" fill="none" stroke-linecap="round"/>
  <circle cx="56.25" cy="30" r="1.4" fill="#8eb6ff" opacity="0.9"/>
  <line x1="52.25" y1="30" x2="56.25" y2="30" stroke="#8eb6ff" stroke-width="0.5" opacity="0.5"/>
  <circle cx="49" cy="24" r="1.4" fill="#8eb6ff" opacity="0.9"/>
  <line x1="53" y1="24" x2="49" y2="24" stroke="#8eb6ff" stroke-width="0.5" opacity="0.5"/>
  <circle cx="56.25" cy="18" r="1.4" fill="#8eb6ff" opacity="0.9"/>
  <line x1="52.25" y1="18" x2="56.25" y2="18" stroke="#8eb6ff" stroke-width="0.5" opacity="0.5"/>
  <circle cx="50" cy="12" r="1.8" fill="#8eb6ff"/>
  <path d="M 62.12435565298214 43 Q 75.5166604983954 42.19615242270663 82.90896534380866 31" stroke="#8eb6ff" stroke-width="1.4" fill="none" stroke-linecap="round"/>
  <circle cx="70.44550807568876" cy="45.412658773652744" r="1.4" fill="#8eb6ff" opacity="0.9"/>
  <line x1="68.44550807568876" y1="41.94855715851499" x2="70.44550807568876" y2="45.412658773652744" stroke="#8eb6ff" stroke-width="0.5" opacity="0.5"/>
  <circle cx="72.0166604983954" cy="36.13397459621556" r="1.4" fill="#8eb6ff" opacity="0.9"/>
  <line x1="74.0166604983954" y1="39.598076211353316" x2="72.0166604983954" y2="36.13397459621556" stroke="#8eb6ff" stroke-width="0.5" opacity="0.5"/>
  <circle cx="80.83781292110203" cy="39.412658773652744" r="1.4" fill="#8eb6ff" opacity="0.9"/>
  <line x1="78.83781292110203" y1="35.94855715851499" x2="80.83781292110203" y2="39.412658773652744" stroke="#8eb6ff" stroke-width="0.5" opacity="0.5"/>
  <circle cx="82.90896534380866" cy="31" r="1.8" fill="#8eb6ff"/>
  <path d="M 62.124355652982146 57 Q 69.51666049839541 68.19615242270663 82.90896534380867 69" stroke="#8eb6ff" stroke-width="1.4" fill="none" stroke-linecap="round"/>
  <circle cx="64.19550807568878" cy="65.41265877365274" r="1.4" fill="#8eb6ff" opacity="0.9"/>
  <line x1="66.19550807568878" y1="61.94855715851499" x2="64.19550807568878" y2="65.41265877365274" stroke="#8eb6ff" stroke-width="0.5" opacity="0.5"/>
  <circle cx="73.01666049839541" cy="62.13397459621556" r="1.4" fill="#8eb6ff" opacity="0.9"/>
  <line x1="71.01666049839541" y1="65.59807621135332" x2="73.01666049839541" y2="62.13397459621556" stroke="#8eb6ff" stroke-width="0.5" opacity="0.5"/>
  <circle cx="74.58781292110204" cy="71.41265877365274" r="1.4" fill="#8eb6ff" opacity="0.9"/>
  <line x1="76.58781292110204" y1="67.94855715851499" x2="74.58781292110204" y2="71.41265877365274" stroke="#8eb6ff" stroke-width="0.5" opacity="0.5"/>
  <circle cx="82.90896534380867" cy="69" r="1.8" fill="#8eb6ff"/>
  <path d="M 50 64 Q 44 76 50 88" stroke="#8eb6ff" stroke-width="1.4" fill="none" stroke-linecap="round"/>
  <circle cx="43.75" cy="70" r="1.4" fill="#8eb6ff" opacity="0.9"/>
  <line x1="47.75" y1="70" x2="43.75" y2="70" stroke="#8eb6ff" stroke-width="0.5" opacity="0.5"/>
  <circle cx="51" cy="76" r="1.4" fill="#8eb6ff" opacity="0.9"/>
  <line x1="47" y1="76" x2="51" y2="76" stroke="#8eb6ff" stroke-width="0.5" opacity="0.5"/>
  <circle cx="43.75" cy="82" r="1.4" fill="#8eb6ff" opacity="0.9"/>
  <line x1="47.75" y1="82" x2="43.75" y2="82" stroke="#8eb6ff" stroke-width="0.5" opacity="0.5"/>
  <circle cx="50" cy="88" r="1.8" fill="#8eb6ff"/>
  <path d="M 37.87564434701786 57.00000000000001 Q 24.483339501604597 57.80384757729338 17.09103465619134 69.00000000000001" stroke="#8eb6ff" stroke-width="1.4" fill="none" stroke-linecap="round"/>
  <circle cx="29.55449192431123" cy="54.58734122634727" r="1.4" fill="#8eb6ff" opacity="0.9"/>
  <line x1="31.55449192431123" y1="58.05144284148503" x2="29.55449192431123" y2="54.58734122634727" stroke="#8eb6ff" stroke-width="0.5" opacity="0.5"/>
  <circle cx="27.983339501604597" cy="63.866025403784455" r="1.4" fill="#8eb6ff" opacity="0.9"/>
  <line x1="25.983339501604597" y1="60.4019237886467" x2="27.983339501604597" y2="63.866025403784455" stroke="#8eb6ff" stroke-width="0.5" opacity="0.5"/>
  <circle cx="19.162187078897965" cy="60.58734122634727" r="1.4" fill="#8eb6ff" opacity="0.9"/>
  <line x1="21.16218707889797" y1="64.05144284148503" x2="19.162187078897965" y2="60.58734122634727" stroke="#8eb6ff" stroke-width="0.5" opacity="0.5"/>
  <circle cx="17.09103465619134" cy="69.00000000000001" r="1.8" fill="#8eb6ff"/>
  <path d="M 37.87564434701786 43 Q 30.483339501604597 31.803847577293368 17.091034656191333 30.999999999999996" stroke="#8eb6ff" stroke-width="1.4" fill="none" stroke-linecap="round"/>
  <circle cx="35.80449192431123" cy="34.587341226347256" r="1.4" fill="#8eb6ff" opacity="0.9"/>
  <line x1="33.80449192431123" y1="38.05144284148501" x2="35.80449192431123" y2="34.587341226347256" stroke="#8eb6ff" stroke-width="0.5" opacity="0.5"/>
  <circle cx="26.983339501604597" cy="37.86602540378444" r="1.4" fill="#8eb6ff" opacity="0.9"/>
  <line x1="28.983339501604597" y1="34.401923788646684" x2="26.983339501604597" y2="37.86602540378444" stroke="#8eb6ff" stroke-width="0.5" opacity="0.5"/>
  <circle cx="25.412187078897965" cy="28.58734122634726" r="1.4" fill="#8eb6ff" opacity="0.9"/>
  <line x1="23.412187078897965" y1="32.05144284148501" x2="25.412187078897965" y2="28.58734122634726" stroke="#8eb6ff" stroke-width="0.5" opacity="0.5"/>
  <circle cx="17.091034656191333" cy="30.999999999999996" r="1.8" fill="#8eb6ff"/>
  <circle cx="50" cy="50" r="3" fill="#8eb6ff"/>
</svg>
