<svg xmlns="http://www.w3.org/2000/svg" viewBox="0 0 500 500" width="64" height="64">
  <rect width="500" height="500" rx="92" fill="#0b1220"/>
  <g fill="none" stroke="#e8edf7" stroke-width="2.6" opacity="0.5">
  <circle cx="250" cy="250" r="238" fill="none" />
  </g>
  <g fill="none" stroke="#e8edf7" stroke-width="7" stroke-linecap="round">
  <path d="M 250 202 C 261.29 142.59 348.42 104.09 404.28 113.5" />
  <path d="M 291.57 226 C 349.78 208.67 425.97 253.07 441 327.17" />
  <path d="M 291.57 274 C 338.47 311.95 328.53 407.51 287.54 452.55" />
  <path d="M 250 298 C 237.77 357.31 162 402.42 89.91 379.64" />
  <path d="M 208.43 274 C 152.52 296.5 74.24 240.79 54.08 186.34" />
  <path d="M 208.43 226 C 163.75 185 166.02 95.33 219.55 46.26" />
  </g>
  <g fill="none" stroke="#8eb6ff" stroke-width="3.4" stroke-linecap="round">
  <path d="M 268.46 133.45 Q 303.76 109.96 346.95 100.72" />
  <path d="M 361.23 210.61 Q 396.72 218.81 428 250" />
  <path d="M 342.99 322.65 Q 345.41 365.74 332.19 407.89" />
  <path d="M 230.52 366.38 Q 206.14 393.45 163.7 405.68" />
  <path d="M 140.98 295.16 Q 102.28 276.05 72.11 243.79" />
  <path d="M 159.61 174.15 Q 150.61 137.66 162.35 95.08" />
  </g>
  <g fill="none" stroke="#e8edf7" stroke-width="2.2" opacity="0.85">
  <path d="M 353.43 117.61 L 396.96 80.95 M 353.43 117.61 L 429.02 102.43 M 429.02 102.43 L 426.39 139.78 M 271.5 133.98 L 255.23 100.09 M 271.5 133.98 L 315.08 103.83" />
  <path d="M 415.7 277.73 L 471.82 281.17 M 415.7 277.73 L 461.94 344.36 M 461.94 344.36 L 431.03 352.42 M 363.43 217.47 L 384.24 183.07 M 363.43 217.47 L 408.03 224.97" />
  <path d="M 315.64 404.64 L 324.77 461.15 M 315.64 404.64 L 284.29 479.45 M 284.29 479.45 L 260.89 457.71 M 338.38 328.19 L 378.58 327.26 M 338.38 328.19 L 345.17 378.62" />
  <path d="M 145.42 381.48 L 115.19 428.89 M 145.42 381.48 L 64.72 389.62 M 64.72 389.62 L 72.65 358.68 M 223.46 364.98 L 243.46 399.86 M 223.46 364.98 L 195.28 400.35" />
  <path d="M 83.08 230.98 L 29.4 211.1 M 83.08 230.98 L 31.99 170.65 M 31.99 170.65 L 63.85 157.19 M 139.12 290.36 L 119.45 323.86 M 139.12 290.36 L 91.19 269.5" />
  <path d="M 189.79 93.16 L 167.9 41.59 M 189.79 93.16 L 223.74 19.49 M 223.74 19.49 L 246.37 42.03 M 164.41 168.77 L 124.2 168.3 M 164.41 168.77 L 150.4 124.78" />
  </g>
  <g fill="#0b1220" stroke="#e8edf7" stroke-width="2.6">
  <circle cx="396.96" cy="80.95" r="7.5" />
  <circle cx="429.02" cy="102.43" r="7.5" />
  <circle cx="426.39" cy="139.78" r="7.5" />
  <circle cx="255.23" cy="100.09" r="7.5" />
  <circle cx="315.08" cy="103.83" r="7.5" />
  <circle cx="471.82" cy="281.17" r="7.5" />
  <circle cx="461.94" cy="344.36" r="7.5" />
  <circle cx="431.03" cy="352.42" r="7.5" />
  <circle cx="384.24" cy="183.07" r="7.5" />
  <circle cx="408.03" cy="224.97" r="7.5" />
  <circle cx="324.77" cy="461.15" r="7.5" />
  <circle cx="284.29" cy="479.45" r="7.5" />
  <circle cx="260.89" cy="457.71" r="7.5" />
  <circle cx="378.58" cy="327.26" r="7.5" />
  <circle cx="345.17" cy="378.62" r="7.5" />
  <circle cx="115.19" cy="428.89" r="7.5" />
  <circle cx="64.72" cy="389.62" r="7.5" />
  <circle cx="72.65" cy="358.68" r="7.5" />
  <circle cx="243.46" cy="399.86" r="7.5" />
  <circle cx="195.28" cy="400.35" r="7.5" />
  <circle cx="29.4" cy="211.1" r="7.5" />
  <circle cx="31.99" cy="170.65" r="7.5" />
  <circle cx="63.85" cy="157.19" r="7.5" />
  <circle cx="119.45" cy="323.86" r="7.5" />
  <circle cx="91.19" cy="269.5" r="7.5" />
  <circle cx="167.9" cy="41.59" r="7.5" />
  <circle cx="223.74" cy="19.49" r="7.5" />
  <circle cx="246.37" cy="42.03" r="7.5" />
  <circle cx="124.2" cy="168.3" r="7.5" />
  <circle cx="150.4" cy="124.78" r="7.5" />
  </g>
  <g fill="#8eb6ff">
  <circle cx="250" cy="250" r="9" />
  </g>
</svg>
